<svg xmlns="http://www.w3.org/2000/svg" width="440" height="120" viewBox="0 0 880 240" role="img" aria-label="lgtm">
  <style>
    .icon path { stroke: #111827; }
    .word path { fill: #111827; }
    @media (prefers-color-scheme: dark) {
      .icon path { stroke: #f8fafc; }
      .word path { fill: #f8fafc; }
    }
  </style>
  <g class="logo">
    <g class="icon" fill="none" stroke="#111827" stroke-linecap="round" stroke-linejoin="round" stroke-width="36">
      <path d="m119 55-72 75 72 75" />
      <path d="m281 55 72 75-72 75" />
      <path d="m153 137 34 34 64-68" />
    </g>
    <g class="word" fill="#111827" transform="translate(410 181)">
      <path d="M37.008 0c-7.824 0-13.98-1.98-18.469-5.941-4.488-3.957-6.73-10.356-6.73-19.188V-127.8h27v99.793c0 2.785.671 4.793 2.015 6.031 1.344 1.234 3.266 1.852 5.762 1.852h6.441V0Z" />
      <path d="M109.742 29.16c-9.219 0-16.926-1.14-23.133-3.422-6.203-2.277-11.129-5.465-14.777-9.555C68.184 12.09 65.629 7.39 64.164 2.09L91.887.144c1.008 3.145 2.836 5.61 5.488 7.399 2.652 1.785 6.773 2.68 12.367 2.68 6.406 0 11.328-1.524 14.758-4.571 3.434-3.047 5.148-7.91 5.148-14.582v-10.402c-2.28 4.465-5.941 8.05-10.98 10.766-5.039 2.71-10.68 4.066-16.918 4.066-7.898 0-14.906-1.945-21.023-5.832-6.121-3.887-10.899-9.348-14.329-16.379-3.433-7.031-5.148-15.266-5.148-24.695 0-9.266 1.703-17.438 5.11-24.52 3.41-7.078 8.148-12.633 14.222-16.668 6.07-4.031 13.031-6.047 20.879-6.047 7.078 0 13.055 1.562 17.93 4.68 4.87 3.12 8.53 7.25 10.976 12.387V-96.48h26.5v86.977c0 8.59-1.988 15.754-5.96 21.492-3.973 5.734-9.493 10.031-16.56 12.887-7.066 2.855-15.269 4.285-24.605 4.285Zm-.254-53.57c6.219 0 11.156-2.399 14.817-7.2 3.66-4.797 5.511-11.472 5.558-20.015.051-5.664-.75-10.523-2.39-14.578-1.645-4.059-3.997-7.176-7.059-9.36-3.059-2.183-6.7-3.277-10.926-3.277-6.453 0-11.472 2.473-15.047 7.418-3.574 4.941-5.363 11.543-5.363 19.797 0 8.328 1.848 14.945 5.543 19.855 3.695 4.907 8.652 7.36 14.867 7.36Z" />
      <path d="M216.914 0c-10.012 0-17.356-2.32-22.035-6.965-4.68-4.644-7.02-11.996-7.02-22.05v-90.11h27v86.941c0 4.606.98 7.77 2.934 9.485 1.957 1.719 4.953 2.574 8.984 2.574h13.465V0Zm-44.606-76.355V-96.48h67.934v20.125Z" />
      <path d="M257.808 0v-96.48h24.336l.864 23.257-2.375-1.152c1.222-5.137 3.187-9.504 5.886-13.105 2.7-3.602 5.977-6.36 9.828-8.282 3.852-1.918 8.07-2.879 12.653-2.879 8.062 0 14.582 2.336 19.547 7.004 4.968 4.668 8.148 10.973 9.543 18.918l-3.313.145c1.102-5.664 3-10.426 5.688-14.278 2.687-3.851 6.015-6.777 9.988-8.78 3.972-2.005 8.418-3.009 13.34-3.009 6.625 0 12.347 1.39 17.172 4.176 4.824 2.785 8.562 6.894 11.215 12.332 2.652 5.434 3.976 12.137 3.976 20.105V0h-27v-54.574c0-7.563-1.16-13.227-3.472-16.992-2.317-3.77-6.02-5.653-11.11-5.653-3.285 0-6.074.899-8.367 2.7-2.293 1.8-4.05 4.421-5.273 7.867-1.227 3.441-1.836 7.613-1.836 12.508V0h-24.41v-54.144c0-7.512-1.067-13.235-3.203-17.172-2.137-3.934-5.844-5.903-11.125-5.903-3.29 0-6.078.899-8.367 2.7-2.293 1.8-4.063 4.433-5.313 7.902-1.246 3.469-1.87 7.625-1.87 12.473V0Z" />
    </g>
  </g>
</svg>
